{
	"asset":{
		"generator":"Khronos glTF Blender I/O v4.5.47",
		"version":"2.0"
	},
	"extensionsUsed":[
		"KHR_materials_transmission",
		"KHR_materials_specular",
		"KHR_materials_ior",
		"KHR_materials_sheen"
	],
	"scene":0,
	"scenes":[
		{
			"name":"Scene",
			"nodes":[
				0,
				1,
				2,
				3,
				4,
				5,
				6,
				7,
				8,
				9
			]
		}
	],
	"nodes":[
		{
			"mesh":0,
			"name":"Cylinder",
			"scale":[
				0.7852909564971924,
				1.499999761581421,
				0.7852909564971924
			],
			"translation":[
				0,
				0.013448789715766907,
				0
			]
		},
		{
			"mesh":1,
			"name":"Cylinder.001",
			"scale":[
				0.7896186709403992,
				1,
				0.7896186709403992
			],
			"translation":[
				0,
				0.37213873863220215,
				0
			]
		},
		{
			"mesh":2,
			"name":"Cylinder.002",
			"scale":[
				1.0064460039138794,
				0.8999894857406616,
				1.0064460039138794
			],
			"translation":[
				0,
				0.7350730895996094,
				0
			]
		},
		{
			"mesh":3,
			"name":"Cylinder.007",
			"rotation":[
				0,
				0.5000006556510925,
				0,
				0.8660251498222351
			],
			"scale":[
				0.7240657210350037,
				1,
				0.7240657210350037
			],
			"translation":[
				0,
				0.0736456960439682,
				0
			]
		},
		{
			"mesh":4,
			"name":"Cylinder.009",
			"scale":[
				0.4211212694644928,
				0.5656406879425049,
				0.4211212694644928
			],
			"translation":[
				0,
				0.7257725596427917,
				0
			]
		},
		{
			"mesh":5,
			"name":"Cylinder.003",
			"rotation":[
				0,
				0.8660260438919067,
				0,
				0.49999910593032837
			],
			"scale":[
				0.7240657806396484,
				1,
				0.7240657806396484
			],
			"translation":[
				0,
				0.0736456960439682,
				0
			]
		},
		{
			"mesh":6,
			"name":"Cylinder.004",
			"rotation":[
				0,
				-1,
				0,
				9.65599042501708e-07
			],
			"scale":[
				0.7240656614303589,
				1,
				0.7240656614303589
			],
			"translation":[
				0,
				0.0736456960439682,
				0
			]
		},
		{
			"mesh":7,
			"name":"Cylinder.005",
			"rotation":[
				0,
				-0.8660247325897217,
				0,
				0.5000011920928955
			],
			"scale":[
				0.7240658402442932,
				1,
				0.7240658402442932
			],
			"translation":[
				0,
				0.0736456960439682,
				0
			]
		},
		{
			"mesh":8,
			"name":"Cylinder.006",
			"rotation":[
				0,
				-0.49999892711639404,
				0,
				0.8660260438919067
			],
			"scale":[
				0.7240658402442932,
				1,
				0.7240658402442932
			],
			"translation":[
				0,
				0.0736456960439682,
				0
			]
		},
		{
			"mesh":9,
			"name":"Cylinder.008",
			"scale":[
				0.7240656614303589,
				1,
				0.7240656614303589
			],
			"translation":[
				0,
				0.0736456960439682,
				0
			]
		}
	],
	"materials":[
		{
			"doubleSided":true,
			"extensions":{
				"KHR_materials_specular":{
					"specularColorFactor":[
						2.0,
						2.0,
						2.0
					]
				},
				"KHR_materials_ior":{
					"ior":1.4500000476837158
				}
			},
			"name":"Material.001",
			"pbrMetallicRoughness":{
				"baseColorFactor":[
					0.5524250864982605,
					0.5524250864982605,
					0.5524250864982605,
					1
				],
				"roughnessFactor":0.3857142925262451
			}
		},
		{
			"doubleSided":true,
			"name":"Material.002",
			"pbrMetallicRoughness":{
				"baseColorFactor":[
					0,
					0,
					0,
					1
				],
				"metallicFactor":0,
				"roughnessFactor":0.5
			}
		},
		{
			"doubleSided":true,
			"extensions":{
				"KHR_materials_transmission":{
					"transmissionFactor":1
				}
			},
			"name":"Material.003",
			"pbrMetallicRoughness":{
				"baseColorFactor":[
					0.8001105785369873,
					0.25657564401626587,
					0.06150840222835541,
					1
				],
				"metallicFactor":0.05000000074505806,
				"roughnessFactor":0.24090908467769623
			}
		},
		{
			"doubleSided":true,
			"extensions":{
				"KHR_materials_specular":{
					"specularColorFactor":[
						1.5939394235610962,
						1.5939394235610962,
						1.5939394235610962
					]
				},
				"KHR_materials_sheen":{
					"sheenColorFactor":[
						1.0,
						1.0,
						1.0
					],
					"sheenRoughnessFactor":0.5
				},
				"KHR_materials_ior":{
					"ior":1.4500000476837158
				}
			},
			"name":"FabricLeatherSuede001_3K",
			"pbrMetallicRoughness":{
				"baseColorFactor":[
					0.1885211169719696,
					0.0754186362028122,
					0.02016981691122055,
					1
				],
				"metallicFactor":0,
				"roughnessFactor":0.5
			}
		}
	],
	"meshes":[
		{
			"name":"Cylinder.012",
			"primitives":[
				{
					"attributes":{
						"POSITION":0,
						"NORMAL":1,
						"TEXCOORD_0":2
					},
					"indices":3,
					"material":0
				}
			]
		},
		{
			"name":"Cylinder.013",
			"primitives":[
				{
					"attributes":{
						"POSITION":4,
						"NORMAL":5,
						"TEXCOORD_0":6
					},
					"indices":7,
					"material":1
				}
			]
		},
		{
			"name":"Cylinder.014",
			"primitives":[
				{
					"attributes":{
						"POSITION":8,
						"NORMAL":9,
						"TEXCOORD_0":10
					},
					"indices":11,
					"material":2
				}
			]
		},
		{
			"name":"Cylinder.011",
			"primitives":[
				{
					"attributes":{
						"POSITION":12,
						"NORMAL":13,
						"TEXCOORD_0":14
					},
					"indices":15,
					"material":3
				}
			]
		},
		{
			"name":"Cylinder.016",
			"primitives":[
				{
					"attributes":{
						"POSITION":16,
						"NORMAL":17,
						"TEXCOORD_0":18
					},
					"indices":19,
					"material":0
				}
			]
		},
		{
			"name":"Cylinder.017",
			"primitives":[
				{
					"attributes":{
						"POSITION":20,
						"NORMAL":21,
						"TEXCOORD_0":22
					},
					"indices":15,
					"material":3
				}
			]
		},
		{
			"name":"Cylinder.018",
			"primitives":[
				{
					"attributes":{
						"POSITION":23,
						"NORMAL":24,
						"TEXCOORD_0":25
					},
					"indices":15,
					"material":3
				}
			]
		},
		{
			"name":"Cylinder.019",
			"primitives":[
				{
					"attributes":{
						"POSITION":26,
						"NORMAL":27,
						"TEXCOORD_0":28
					},
					"indices":15,
					"material":3
				}
			]
		},
		{
			"name":"Cylinder.020",
			"primitives":[
				{
					"attributes":{
						"POSITION":29,
						"NORMAL":30,
						"TEXCOORD_0":31
					},
					"indices":15,
					"material":3
				}
			]
		},
		{
			"name":"Cylinder.021",
			"primitives":[
				{
					"attributes":{
						"POSITION":32,
						"NORMAL":33,
						"TEXCOORD_0":34
					},
					"indices":15,
					"material":3
				}
			]
		}
	],
	"accessors":[
		{
			"bufferView":0,
			"componentType":5126,
			"count":444,
			"max":[
				0.3844865560531616,
				0.009999999776482582,
				0.3844865560531616
			],
			"min":[
				-0.3844865560531616,
				-0.009999999776482582,
				-0.3844865560531616
			],
			"type":"VEC3"
		},
		{
			"bufferView":1,
			"componentType":5126,
			"count":444,
			"type":"VEC3"
		},
		{
			"bufferView":2,
			"componentType":5126,
			"count":444,
			"type":"VEC2"
		},
		{
			"bufferView":3,
			"componentType":5123,
			"count":1344,
			"type":"SCALAR"
		},
		{
			"bufferView":4,
			"componentType":5126,
			"count":128,
			"max":[
				0.1425696164369583,
				0.3499999940395355,
				0.1425696164369583
			],
			"min":[
				-0.1425696164369583,
				-0.3499999940395355,
				-0.1425696164369583
			],
			"type":"VEC3"
		},
		{
			"bufferView":5,
			"componentType":5126,
			"count":128,
			"type":"VEC3"
		},
		{
			"bufferView":6,
			"componentType":5126,
			"count":128,
			"type":"VEC2"
		},
		{
			"bufferView":7,
			"componentType":5123,
			"count":192,
			"type":"SCALAR"
		},
		{
			"bufferView":8,
			"componentType":5126,
			"count":500,
			"max":[
				0.75,
				0.010000143200159073,
				0.75
			],
			"min":[
				-0.75,
				-0.010000084526836872,
				-0.75
			],
			"type":"VEC3"
		},
		{
			"bufferView":9,
			"componentType":5126,
			"count":500,
			"type":"VEC3"
		},
		{
			"bufferView":10,
			"componentType":5126,
			"count":500,
			"type":"VEC2"
		},
		{
			"bufferView":11,
			"componentType":5123,
			"count":1728,
			"type":"SCALAR"
		},
		{
			"bufferView":12,
			"componentType":5126,
			"count":7952,
			"max":[
				0.15837602317333221,
				0.6534469723701477,
				0.15760934352874756
			],
			"min":[
				-0.15761277079582214,
				-0.05233907327055931,
				-0.15759599208831787
			],
			"type":"VEC3"
		},
		{
			"bufferView":13,
			"componentType":5126,
			"count":7952,
			"type":"VEC3"
		},
		{
			"bufferView":14,
			"componentType":5126,
			"count":7952,
			"type":"VEC2"
		},
		{
			"bufferView":15,
			"componentType":5123,
			"count":15684,
			"type":"SCALAR"
		},
		{
			"bufferView":16,
			"componentType":5126,
			"count":500,
			"max":[
				0.3844865560531616,
				0.010000000707805157,
				0.3844865560531616
			],
			"min":[
				-0.3844865560531616,
				-0.009999999776482582,
				-0.3844865560531616
			],
			"type":"VEC3"
		},
		{
			"bufferView":17,
			"componentType":5126,
			"count":500,
			"type":"VEC3"
		},
		{
			"bufferView":18,
			"componentType":5126,
			"count":500,
			"type":"VEC2"
		},
		{
			"bufferView":19,
			"componentType":5123,
			"count":1728,
			"type":"SCALAR"
		},
		{
			"bufferView":20,
			"componentType":5126,
			"count":7952,
			"max":[
				0.15837602317333221,
				0.6534469723701477,
				0.15760934352874756
			],
			"min":[
				-0.15761277079582214,
				-0.05233907327055931,
				-0.15759599208831787
			],
			"type":"VEC3"
		},
		{
			"bufferView":21,
			"componentType":5126,
			"count":7952,
			"type":"VEC3"
		},
		{
			"bufferView":22,
			"componentType":5126,
			"count":7952,
			"type":"VEC2"
		},
		{
			"bufferView":23,
			"componentType":5126,
			"count":7952,
			"max":[
				0.15837602317333221,
				0.6534469723701477,
				0.15760934352874756
			],
			"min":[
				-0.15761277079582214,
				-0.05233907327055931,
				-0.15759599208831787
			],
			"type":"VEC3"
		},
		{
			"bufferView":24,
			"componentType":5126,
			"count":7952,
			"type":"VEC3"
		},
		{
			"bufferView":25,
			"componentType":5126,
			"count":7952,
			"type":"VEC2"
		},
		{
			"bufferView":26,
			"componentType":5126,
			"count":7952,
			"max":[
				0.15837602317333221,
				0.6534469723701477,
				0.15760934352874756
			],
			"min":[
				-0.15761277079582214,
				-0.05233907327055931,
				-0.15759599208831787
			],
			"type":"VEC3"
		},
		{
			"bufferView":27,
			"componentType":5126,
			"count":7952,
			"type":"VEC3"
		},
		{
			"bufferView":28,
			"componentType":5126,
			"count":7952,
			"type":"VEC2"
		},
		{
			"bufferView":29,
			"componentType":5126,
			"count":7952,
			"max":[
				0.15837602317333221,
				0.6534469723701477,
				0.15760934352874756
			],
			"min":[
				-0.15761277079582214,
				-0.05233907327055931,
				-0.15759599208831787
			],
			"type":"VEC3"
		},
		{
			"bufferView":30,
			"componentType":5126,
			"count":7952,
			"type":"VEC3"
		},
		{
			"bufferView":31,
			"componentType":5126,
			"count":7952,
			"type":"VEC2"
		},
		{
			"bufferView":32,
			"componentType":5126,
			"count":7952,
			"max":[
				0.15837602317333221,
				0.6534469723701477,
				0.15760934352874756
			],
			"min":[
				-0.15761277079582214,
				-0.05233907327055931,
				-0.15759599208831787
			],
			"type":"VEC3"
		},
		{
			"bufferView":33,
			"componentType":5126,
			"count":7952,
			"type":"VEC3"
		},
		{
			"bufferView":34,
			"componentType":5126,
			"count":7952,
			"type":"VEC2"
		}
	],
	"bufferViews":[
		{
			"buffer":0,
			"byteLength":5328,
			"byteOffset":0,
			"target":34962
		},
		{
			"buffer":0,
			"byteLength":5328,
			"byteOffset":5328,
			"target":34962
		},
		{
			"buffer":0,
			"byteLength":3552,
			"byteOffset":10656,
			"target":34962
		},
		{
			"buffer":0,
			"byteLength":2688,
			"byteOffset":14208,
			"target":34963
		},
		{
			"buffer":0,
			"byteLength":1536,
			"byteOffset":16896,
			"target":34962
		},
		{
			"buffer":0,
			"byteLength":1536,
			"byteOffset":18432,
			"target":34962
		},
		{
			"buffer":0,
			"byteLength":1024,
			"byteOffset":19968,
			"target":34962
		},
		{
			"buffer":0,
			"byteLength":384,
			"byteOffset":20992,
			"target":34963
		},
		{
			"buffer":0,
			"byteLength":6000,
			"byteOffset":21376,
			"target":34962
		},
		{
			"buffer":0,
			"byteLength":6000,
			"byteOffset":27376,
			"target":34962
		},
		{
			"buffer":0,
			"byteLength":4000,
			"byteOffset":33376,
			"target":34962
		},
		{
			"buffer":0,
			"byteLength":3456,
			"byteOffset":37376,
			"target":34963
		},
		{
			"buffer":0,
			"byteLength":95424,
			"byteOffset":40832,
			"target":34962
		},
		{
			"buffer":0,
			"byteLength":95424,
			"byteOffset":136256,
			"target":34962
		},
		{
			"buffer":0,
			"byteLength":63616,
			"byteOffset":231680,
			"target":34962
		},
		{
			"buffer":0,
			"byteLength":31368,
			"byteOffset":295296,
			"target":34963
		},
		{
			"buffer":0,
			"byteLength":6000,
			"byteOffset":326664,
			"target":34962
		},
		{
			"buffer":0,
			"byteLength":6000,
			"byteOffset":332664,
			"target":34962
		},
		{
			"buffer":0,
			"byteLength":4000,
			"byteOffset":338664,
			"target":34962
		},
		{
			"buffer":0,
			"byteLength":3456,
			"byteOffset":342664,
			"target":34963
		},
		{
			"buffer":0,
			"byteLength":95424,
			"byteOffset":346120,
			"target":34962
		},
		{
			"buffer":0,
			"byteLength":95424,
			"byteOffset":441544,
			"target":34962
		},
		{
			"buffer":0,
			"byteLength":63616,
			"byteOffset":536968,
			"target":34962
		},
		{
			"buffer":0,
			"byteLength":95424,
			"byteOffset":600584,
			"target":34962
		},
		{
			"buffer":0,
			"byteLength":95424,
			"byteOffset":696008,
			"target":34962
		},
		{
			"buffer":0,
			"byteLength":63616,
			"byteOffset":791432,
			"target":34962
		},
		{
			"buffer":0,
			"byteLength":95424,
			"byteOffset":855048,
			"target":34962
		},
		{
			"buffer":0,
			"byteLength":95424,
			"byteOffset":950472,
			"target":34962
		},
		{
			"buffer":0,
			"byteLength":63616,
			"byteOffset":1045896,
			"target":34962
		},
		{
			"buffer":0,
			"byteLength":95424,
			"byteOffset":1109512,
			"target":34962
		},
		{
			"buffer":0,
			"byteLength":95424,
			"byteOffset":1204936,
			"target":34962
		},
		{
			"buffer":0,
			"byteLength":63616,
			"byteOffset":1300360,
			"target":34962
		},
		{
			"buffer":0,
			"byteLength":95424,
			"byteOffset":1363976,
			"target":34962
		},
		{
			"buffer":0,
			"byteLength":95424,
			"byteOffset":1459400,
			"target":34962
		},
		{
			"buffer":0,
			"byteLength":63616,
			"byteOffset":1554824,
			"target":34962
		}
	],
	"buffers":[
		{
			"byteLength":1618440,
			"uri":"Rolling_B.bin"
		}
	]
}
