{
	"asset":{
		"generator":"Khronos glTF Blender I/O v4.5.47",
		"version":"2.0"
	},
	"extensionsUsed":[
		"KHR_materials_specular",
		"KHR_materials_ior"
	],
	"scene":0,
	"scenes":[
		{
			"name":"Scene",
			"nodes":[
				0
			]
		}
	],
	"nodes":[
		{
			"mesh":0,
			"name":"Cylinder001",
			"rotation":[
				0,
				-0.6427876353263855,
				0,
				0.766044557094574
			],
			"scale":[
				0.00834483653306961,
				0.008344827219843864,
				0.00834483653306961
			],
			"translation":[
				0,
				0.34741640090942383,
				0
			]
		}
	],
	"materials":[
		{
			"doubleSided":true,
			"extensions":{
				"KHR_materials_specular":{
					"specularColorFactor":[
						2.0,
						2.0,
						2.0
					]
				},
				"KHR_materials_ior":{
					"ior":1.4500000476837158
				}
			},
			"name":"STONE::Marble Polished::Daino Reale.002",
			"pbrMetallicRoughness":{
				"baseColorTexture":{
					"index":0
				},
				"metallicRoughnessTexture":{
					"index":1
				},
				"roughnessFactor":0.5527864098548889
			}
		},
		{
			"doubleSided":true,
			"extensions":{
				"KHR_materials_specular":{
					"specularColorFactor":[
						2.0,
						2.0,
						2.0
					]
				},
				"KHR_materials_ior":{
					"ior":1.4500000476837158
				}
			},
			"name":"13 - Default.002",
			"pbrMetallicRoughness":{
				"baseColorFactor":[
					0,
					0,
					0,
					1
				],
				"metallicFactor":0,
				"roughnessFactor":0.5527864098548889
			}
		}
	],
	"meshes":[
		{
			"name":"Mesh.066",
			"primitives":[
				{
					"attributes":{
						"POSITION":0,
						"NORMAL":1,
						"TEXCOORD_0":2
					},
					"indices":3,
					"material":0
				},
				{
					"attributes":{
						"POSITION":4,
						"NORMAL":5,
						"TEXCOORD_0":6
					},
					"indices":7,
					"material":1
				}
			]
		}
	],
	"textures":[
		{
			"sampler":0,
			"source":0
		},
		{
			"sampler":0,
			"source":1
		}
	],
	"images":[
		{
			"mimeType":"image/jpeg",
			"name":"4_1_11_d",
			"uri":"4_1_11_d.jpg"
		},
		{
			"mimeType":"image/png",
			"name":"Image",
			"uri":"Image.png"
		}
	],
	"accessors":[
		{
			"bufferView":0,
			"componentType":5126,
			"count":7698,
			"max":[
				59.78218460083008,
				3,
				59.78218460083008
			],
			"min":[
				-59.78218460083008,
				0,
				-59.78218460083008
			],
			"type":"VEC3"
		},
		{
			"bufferView":1,
			"componentType":5126,
			"count":7698,
			"type":"VEC3"
		},
		{
			"bufferView":2,
			"componentType":5126,
			"count":7698,
			"type":"VEC2"
		},
		{
			"bufferView":3,
			"componentType":5123,
			"count":12528,
			"type":"SCALAR"
		},
		{
			"bufferView":4,
			"componentType":5126,
			"count":2452,
			"max":[
				37.00496292114258,
				1.3056392669677734,
				37.005096435546875
			],
			"min":[
				-37.00506591796875,
				-40.76605224609375,
				-37.00493240356445
			],
			"type":"VEC3"
		},
		{
			"bufferView":5,
			"componentType":5126,
			"count":2452,
			"type":"VEC3"
		},
		{
			"bufferView":6,
			"componentType":5126,
			"count":2452,
			"type":"VEC2"
		},
		{
			"bufferView":7,
			"componentType":5123,
			"count":14688,
			"type":"SCALAR"
		}
	],
	"bufferViews":[
		{
			"buffer":0,
			"byteLength":92376,
			"byteOffset":0,
			"target":34962
		},
		{
			"buffer":0,
			"byteLength":92376,
			"byteOffset":92376,
			"target":34962
		},
		{
			"buffer":0,
			"byteLength":61584,
			"byteOffset":184752,
			"target":34962
		},
		{
			"buffer":0,
			"byteLength":25056,
			"byteOffset":246336,
			"target":34963
		},
		{
			"buffer":0,
			"byteLength":29424,
			"byteOffset":271392,
			"target":34962
		},
		{
			"buffer":0,
			"byteLength":29424,
			"byteOffset":300816,
			"target":34962
		},
		{
			"buffer":0,
			"byteLength":19616,
			"byteOffset":330240,
			"target":34962
		},
		{
			"buffer":0,
			"byteLength":29376,
			"byteOffset":349856,
			"target":34963
		}
	],
	"samplers":[
		{
			"magFilter":9729,
			"minFilter":9987
		}
	],
	"buffers":[
		{
			"byteLength":379232,
			"uri":"table4.bin"
		}
	]
}
