{
	"asset":{
		"generator":"Khronos glTF Blender I/O v4.5.47",
		"version":"2.0"
	},
	"scene":0,
	"scenes":[
		{
			"name":"Scene",
			"nodes":[
				0
			]
		}
	],
	"nodes":[
		{
			"mesh":0,
			"name":"coffee_table",
			"scale":[
				0.05950526148080826,
				0.05950526148080826,
				0.05950526148080826
			]
		}
	],
	"materials":[
		{
			"doubleSided":true,
			"name":"m_table.001",
			"normalTexture":{
				"index":0
			},
			"occlusionTexture":{
				"index":1
			},
			"pbrMetallicRoughness":{
				"baseColorTexture":{
					"index":2
				},
				"metallicRoughnessTexture":{
					"index":1
				}
			}
		}
	],
	"meshes":[
		{
			"name":"Mesh",
			"primitives":[
				{
					"attributes":{
						"POSITION":0,
						"NORMAL":1,
						"TEXCOORD_0":2
					},
					"indices":3,
					"material":0
				}
			]
		}
	],
	"textures":[
		{
			"sampler":0,
			"source":0
		},
		{
			"sampler":0,
			"source":1
		},
		{
			"sampler":0,
			"source":2
		}
	],
	"images":[
		{
			"mimeType":"image/png",
			"name":"table_norm",
			"uri":"table_norm.png"
		},
		{
			"mimeType":"image/png",
			"name":"table_ao-table_rough-table_metal",
			"uri":"table_ao-table_rough-table_metal.png"
		},
		{
			"mimeType":"image/png",
			"name":"table_basecolor",
			"uri":"table_basecolor.png"
		}
	],
	"accessors":[
		{
			"bufferView":0,
			"componentType":5126,
			"count":602,
			"max":[
				3.9828383922576904,
				8.23387622833252,
				4.957491397857666
			],
			"min":[
				-3.9829294681549072,
				-0.11381757259368896,
				-4.956630706787109
			],
			"type":"VEC3"
		},
		{
			"bufferView":1,
			"componentType":5126,
			"count":602,
			"type":"VEC3"
		},
		{
			"bufferView":2,
			"componentType":5126,
			"count":602,
			"type":"VEC2"
		},
		{
			"bufferView":3,
			"componentType":5123,
			"count":1644,
			"type":"SCALAR"
		}
	],
	"bufferViews":[
		{
			"buffer":0,
			"byteLength":7224,
			"byteOffset":0,
			"target":34962
		},
		{
			"buffer":0,
			"byteLength":7224,
			"byteOffset":7224,
			"target":34962
		},
		{
			"buffer":0,
			"byteLength":4816,
			"byteOffset":14448,
			"target":34962
		},
		{
			"buffer":0,
			"byteLength":3288,
			"byteOffset":19264,
			"target":34963
		}
	],
	"samplers":[
		{
			"magFilter":9729,
			"minFilter":9987
		}
	],
	"buffers":[
		{
			"byteLength":22552,
			"uri":"table5.bin"
		}
	]
}
