{
	"asset":{
		"generator":"Khronos glTF Blender I/O v4.5.47",
		"version":"2.0"
	},
	"scene":0,
	"scenes":[
		{
			"name":"Scene",
			"nodes":[
				1
			]
		}
	],
	"nodes":[
		{
			"mesh":0,
			"name":"exterior_table"
		},
		{
			"children":[
				0
			],
			"name":"exterior_table_grp",
			"scale":[
				100,
				100,
				100
			]
		}
	],
	"materials":[
		{
			"doubleSided":true,
			"name":"m_table.001",
			"normalTexture":{
				"index":0
			},
			"occlusionTexture":{
				"index":1
			},
			"pbrMetallicRoughness":{
				"baseColorTexture":{
					"index":2
				},
				"metallicRoughnessTexture":{
					"index":1
				}
			}
		}
	],
	"meshes":[
		{
			"name":"Mesh",
			"primitives":[
				{
					"attributes":{
						"POSITION":0,
						"NORMAL":1,
						"TEXCOORD_0":2,
						"COLOR_0":3
					},
					"indices":4,
					"material":0
				}
			]
		}
	],
	"textures":[
		{
			"sampler":0,
			"source":0
		},
		{
			"sampler":0,
			"source":1
		},
		{
			"sampler":0,
			"source":2
		}
	],
	"images":[
		{
			"mimeType":"image/png",
			"name":"ex_table_norm",
			"uri":"ex_table_norm.png"
		},
		{
			"mimeType":"image/png",
			"name":"ex_table_ao-ex_table_rough-ex_table_metal",
			"uri":"ex_table_ao-ex_table_rough-ex_table_metal.png"
		},
		{
			"mimeType":"image/png",
			"name":"ex_table_basecolor",
			"uri":"ex_table_basecolor.png"
		}
	],
	"accessors":[
		{
			"bufferView":0,
			"componentType":5126,
			"count":82532,
			"max":[
				0.010104100219905376,
				0.008389935828745365,
				0.010104105807840824
			],
			"min":[
				-0.01010412722826004,
				3.1186202704702737e-06,
				-0.010104121640324593
			],
			"type":"VEC3"
		},
		{
			"bufferView":1,
			"componentType":5126,
			"count":82532,
			"type":"VEC3"
		},
		{
			"bufferView":2,
			"componentType":5126,
			"count":82532,
			"type":"VEC2"
		},
		{
			"bufferView":3,
			"componentType":5126,
			"count":82532,
			"type":"VEC3"
		},
		{
			"bufferView":4,
			"componentType":5125,
			"count":343614,
			"type":"SCALAR"
		}
	],
	"bufferViews":[
		{
			"buffer":0,
			"byteLength":990384,
			"byteOffset":0,
			"target":34962
		},
		{
			"buffer":0,
			"byteLength":990384,
			"byteOffset":990384,
			"target":34962
		},
		{
			"buffer":0,
			"byteLength":660256,
			"byteOffset":1980768,
			"target":34962
		},
		{
			"buffer":0,
			"byteLength":990384,
			"byteOffset":2641024,
			"target":34962
		},
		{
			"buffer":0,
			"byteLength":1374456,
			"byteOffset":3631408,
			"target":34963
		}
	],
	"samplers":[
		{
			"magFilter":9729,
			"minFilter":9987
		}
	],
	"buffers":[
		{
			"byteLength":5005864,
			"uri":"Rolling_B.bin"
		}
	]
}
